<svg xmlns="http://www.w3.org/2000/svg" xmlns:xlink="http://www.w3.org/1999/xlink" xmlns:lucid="lucid" width="1445.9" height="1057"><g transform="translate(-44 -54)" lucid:page-tab-id="page1"><path d="M45 67a12 12 0 0 1 12-12h91.9v300H45z" stroke="#000" stroke-width="2" fill="#22c55e"/><path d="M45 355h103.9v300H45z" stroke="#000" stroke-width="2" fill="#3b82f6"/><path d="M45 655h103.9v300H57a12 12 0 0 1-12-12z" stroke="#000" stroke-width="2" fill="#eab308"/><path d="M148.9 55h1328a12 12 0 0 1 12 12v288h-1340z" stroke="#000" stroke-width="2" fill="#f0fdf4"/><path d="M148.9 355h1340v300h-1340z" stroke="#000" stroke-width="2" fill="#eff6ff"/><path d="M148.9 655h1340v288a12 12 0 0 1-12 12h-1328z" stroke="#000" stroke-width="2" fill="#fefce8"/><use xlink:href="#a" transform="matrix(1,0,0,1,45,55) translate(14 132)"/><use xlink:href="#b" transform="matrix(1,0,0,1,45,55) translate(70 132)"/><use xlink:href="#c" transform="matrix(1,0,0,1,45,55) translate(85 132)"/><use xlink:href="#d" transform="matrix(1,0,0,1,45,55) translate(7.024999999999999 153.6)"/><use xlink:href="#e" transform="matrix(1,0,0,1,45,55) translate(78.975 153.6)"/><use xlink:href="#f" transform="matrix(1,0,0,1,45,55) translate(16.549999999999997 175.20000000000002)"/><use xlink:href="#a" transform="matrix(1,0,0,1,45,355) translate(14 132)"/><use xlink:href="#g" transform="matrix(1,0,0,1,45,355) translate(70 132)"/><use xlink:href="#c" transform="matrix(1,0,0,1,45,355) translate(85 132)"/><use xlink:href="#h" transform="matrix(1,0,0,1,45,355) translate(8.049999999999997 153.6)"/><use xlink:href="#i" transform="matrix(1,0,0,1,45,355) translate(29.525 175.20000000000002)"/><use xlink:href="#a" transform="matrix(1,0,0,1,45,655) translate(14 121.19999999999999)"/><use xlink:href="#j" transform="matrix(1,0,0,1,45,655) translate(70 121.19999999999999)"/><use xlink:href="#c" transform="matrix(1,0,0,1,45,655) translate(85 121.19999999999999)"/><use xlink:href="#k" transform="matrix(1,0,0,1,45,655) translate(8.299999999999997 142.79999999999998)"/><use xlink:href="#l" transform="matrix(1,0,0,1,45,655) translate(85.2 142.79999999999998)"/><use xlink:href="#m" transform="matrix(1,0,0,1,45,655) translate(35.525 164.4)"/><use xlink:href="#n" transform="matrix(1,0,0,1,45,655) translate(17.9 186)"/><path d="M595 71a6 6 0 0 1 6-6h440a6 6 0 0 1 6 6v28a6 6 0 0 1-6 6H601a6 6 0 0 1-6-6z" stroke="#000" stroke-width="2" fill="#fff"/><use xlink:href="#o" transform="matrix(1,0,0,1,600,70) translate(18.165737643998494 10.358231140839836)"/><use xlink:href="#p" transform="matrix(1,0,0,1,600,70) translate(41.05685618729095 10.358231140839836)"/><use xlink:href="#q" transform="matrix(1,0,0,1,600,70) translate(77.64994425863988 10.358231140839836)"/><use xlink:href="#r" transform="matrix(1,0,0,1,600,70) translate(84.19026384243772 10.358231140839836)"/><use xlink:href="#s" transform="matrix(1,0,0,1,600,70) translate(135.17205499814193 10.358231140839836)"/><use xlink:href="#t" transform="matrix(1,0,0,1,600,70) translate(171.73244147157186 10.358231140839836)"/><use xlink:href="#u" transform="matrix(1,0,0,1,600,70) translate(201.81791155704195 10.358231140839836)"/><use xlink:href="#s" transform="matrix(1,0,0,1,600,70) translate(211.9554069119286 10.358231140839836)"/><use xlink:href="#v" transform="matrix(1,0,0,1,600,70) translate(248.51579338535856 10.358231140839836)"/><use xlink:href="#u" transform="matrix(1,0,0,1,600,70) translate(302.1137123745819 10.358231140839836)"/><use xlink:href="#w" transform="matrix(1,0,0,1,600,70) translate(312.25120772946855 10.358231140839836)"/><use xlink:href="#u" transform="matrix(1,0,0,1,600,70) translate(350.1196581196581 10.358231140839836)"/><use xlink:href="#x" transform="matrix(1,0,0,1,600,70) translate(360.25715347454474 10.358231140839836)"/><use xlink:href="#y" transform="matrix(1,0,0,1,600,70) translate(417.092530657748 10.358231140839836)"/><use xlink:href="#z" transform="matrix(1,0,0,1,600,70) translate(200.80416202155328 24.485321441843176)"/><path d="M175 136a6 6 0 0 1 6-6h145a6 6 0 0 1 6 6v103a6 6 0 0 1-6 6H181a6 6 0 0 1-6-6z" stroke="#000" stroke-width="2" fill="#fff"/><use xlink:href="#A" transform="matrix(1,0,0,1,180,135) translate(7.77468739044057 14.646527209691872)"/><use xlink:href="#B" transform="matrix(1,0,0,1,180,135) translate(61.42962876397492 14.646527209691872)"/><use xlink:href="#C" transform="matrix(1,0,0,1,180,135) translate(105.58217443808189 14.646527209691872)"/><use xlink:href="#D" transform="matrix(1,0,0,1,180,135) translate(11.374079700829725 35.37902691753341)"/><use xlink:href="#E" transform="matrix(1,0,0,1,180,135) translate(78.32277667406802 35.37902691753341)"/><use xlink:href="#F" transform="matrix(1,0,0,1,180,135) translate(100.39904951112152 35.37902691753341)"/><use xlink:href="#G" transform="matrix(1,0,0,1,180,135) translate(16.869151961357172 56.11152662537495)"/><use xlink:href="#H" transform="matrix(1,0,0,1,180,135) translate(81.0823107786997 56.11152662537495)"/><use xlink:href="#I" transform="matrix(1,0,0,1,180,135) translate(105.0782595146274 56.11152662537495)"/><use xlink:href="#J" transform="matrix(1,0,0,1,180,135) translate(18.30890888551284 76.84402633321649)"/><use xlink:href="#K" transform="matrix(1,0,0,1,180,135) translate(80.65038370145301 76.84402633321649)"/><use xlink:href="#L" transform="matrix(1,0,0,1,180,135) translate(119.90775583343073 76.84402633321649)"/><use xlink:href="#M" transform="matrix(1,0,0,1,180,135) translate(49.91157337072962 97.57652604105802)"/><path d="M393 136a6 6 0 0 1 6-6h145a6 6 0 0 1 6 6v103a6 6 0 0 1-6 6H399a6 6 0 0 1-6-6z" stroke="#000" stroke-width="2" fill="#fff"/><use xlink:href="#N" transform="matrix(1,0,0,1,397.99999999999994,135) translate(34.60215807720775 14.646527209691872)"/><use xlink:href="#O" transform="matrix(1,0,0,1,397.99999999999994,135) translate(9.43040785321959 35.37902691753341)"/><use xlink:href="#P" transform="matrix(1,0,0,1,397.99999999999994,135) translate(128.30633789100543 35.37902691753341)"/><use xlink:href="#Q" transform="matrix(1,0,0,1,397.99999999999994,135) translate(32.20256320361497 56.11152662537495)"/><use xlink:href="#R" transform="matrix(1,0,0,1,397.99999999999994,135) translate(98.33539791983172 56.11152662537495)"/><use xlink:href="#S" transform="matrix(1,0,0,1,397.99999999999994,135) translate(1.0558217443808136 76.84402633321649)"/><use xlink:href="#T" transform="matrix(1,0,0,1,397.99999999999994,135) translate(86.33742355186787 76.84402633321649)"/><use xlink:href="#U" transform="matrix(1,0,0,1,397.99999999999994,135) translate(8.4945658525184 97.57652604105802)"/><use xlink:href="#V" transform="matrix(1,0,0,1,397.99999999999994,135) translate(23.372054068793577 97.57652604105802)"/><use xlink:href="#W" transform="matrix(1,0,0,1,397.99999999999994,135) translate(37.7696233103502 97.57652604105802)"/><use xlink:href="#X" transform="matrix(1,0,0,1,397.99999999999994,135) translate(101.98278212769273 97.57652604105802)"/><path d="M611 136a6 6 0 0 1 6-6h145a6 6 0 0 1 6 6v103a6 6 0 0 1-6 6H617a6 6 0 0 1-6-6z" stroke="#000" stroke-width="2" fill="#fff"/><use xlink:href="#Y" transform="matrix(1,0,0,1,616,135) translate(0.9668811803484418 37.56534819232983)"/><use xlink:href="#Z" transform="matrix(1,0,0,1,616,135) translate(49.01013271944052 37.56534819232983)"/><use xlink:href="#aa" transform="matrix(1,0,0,1,616,135) translate(119.44205514571237 37.56534819232983)"/><use xlink:href="#ab" transform="matrix(1,0,0,1,616,135) translate(66.17764523273863 56.12946685502015)"/><use xlink:href="#ac" transform="matrix(1,0,0,1,616,135) translate(1.9122761122447276 74.69358551771047)"/><path d="M829 136a6 6 0 0 1 6-6h145a6 6 0 0 1 6 6v103a6 6 0 0 1-6 6H835a6 6 0 0 1-6-6z" stroke="#000" stroke-width="2" fill="#fff"/><use xlink:href="#ad" transform="matrix(1,0,0,1,833.9999999999999,135) translate(10.17428226403334 24.957286432160807)"/><use xlink:href="#ae" transform="matrix(1,0,0,1,833.9999999999999,135) translate(82.1141365743446 24.957286432160807)"/><use xlink:href="#af" transform="matrix(1,0,0,1,833.9999999999999,135) translate(124.25102255463364 24.957286432160807)"/><use xlink:href="#ag" transform="matrix(1,0,0,1,833.9999999999999,135) translate(14.51754898523626 45.68978614000234)"/><use xlink:href="#ah" transform="matrix(1,0,0,1,833.9999999999999,135) translate(70.09216625764482 45.68978614000234)"/><use xlink:href="#ai" transform="matrix(1,0,0,1,833.9999999999999,135) translate(92.16843909469831 45.68978614000234)"/><use xlink:href="#aj" transform="matrix(1,0,0,1,833.9999999999999,135) translate(0.5519068209263263 66.42228584784388)"/><use xlink:href="#ak" transform="matrix(1,0,0,1,833.9999999999999,135) translate(76.33111292898602 66.42228584784388)"/><use xlink:href="#al" transform="matrix(1,0,0,1,833.9999999999999,135) translate(96.43971796969343 66.42228584784388)"/><use xlink:href="#am" transform="matrix(1,0,0,1,833.9999999999999,135) translate(20.73249970784153 87.15478555568542)"/><use xlink:href="#an" transform="matrix(1,0,0,1,833.9999999999999,135) translate(56.15052004207082 87.15478555568542)"/><path d="M1047 136a6 6 0 0 1 6-6h145a6 6 0 0 1 6 6v103a6 6 0 0 1-6 6h-145a6 6 0 0 1-6-6z" stroke="#000" stroke-width="2" fill="#fff"/><use xlink:href="#ao" transform="matrix(1,0,0,1,1052,135) translate(0.0815084353291309 32.94469070459809)"/><use xlink:href="#ap" transform="matrix(1,0,0,1,1052,135) translate(72.84137170581101 32.94469070459809)"/><use xlink:href="#aq" transform="matrix(1,0,0,1,1052,135) translate(0.054338956886092415 56.41912007939135)"/><use xlink:href="#ar" transform="matrix(1,0,0,1,1052,135) translate(53.30651670525968 56.41912007939135)"/><use xlink:href="#as" transform="matrix(1,0,0,1,1052,135) translate(78.30243687286361 56.41912007939135)"/><use xlink:href="#at" transform="matrix(1,0,0,1,1052,135) translate(12.008909471827103 79.89354945418461)"/><use xlink:href="#au" transform="matrix(1,0,0,1,1052,135) translate(60.91397066931305 79.89354945418461)"/><path d="M1265 136a6 6 0 0 1 6-6h145a6 6 0 0 1 6 6v103a6 6 0 0 1-6 6h-145a6 6 0 0 1-6-6z" stroke="#000" stroke-width="2" fill="#fff"/><use xlink:href="#av" transform="matrix(1,0,0,1,1270,135) translate(6.574889953644185 14.646527209691872)"/><use xlink:href="#aw" transform="matrix(1,0,0,1,1270,135) translate(56.34248763195824 14.646527209691872)"/><use xlink:href="#P" transform="matrix(1,0,0,1,1270,135) translate(131.16185579058083 14.646527209691872)"/><use xlink:href="#ax" transform="matrix(1,0,0,1,1270,135) translate(8.710529391141746 35.37902691753341)"/><use xlink:href="#ay" transform="matrix(1,0,0,1,1270,135) translate(50.89540726890265 35.37902691753341)"/><use xlink:href="#az" transform="matrix(1,0,0,1,1270,135) translate(78.68271590510693 35.37902691753341)"/><use xlink:href="#aA" transform="matrix(1,0,0,1,1270,135) translate(121.82743173230494 35.37902691753341)"/><use xlink:href="#aB" transform="matrix(1,0,0,1,1270,135) translate(3.935335592692138 56.11152662537495)"/><use xlink:href="#aC" transform="matrix(1,0,0,1,1270,135) translate(88.30509134821395 56.11152662537495)"/><use xlink:href="#am" transform="matrix(1,0,0,1,1270,135) translate(14.013634061781772 76.84402633321649)"/><use xlink:href="#aD" transform="matrix(1,0,0,1,1270,135) translate(49.43165439601107 76.84402633321649)"/><use xlink:href="#aE" transform="matrix(1,0,0,1,1270,135) translate(63.82922363756769 76.84402633321649)"/><use xlink:href="#ax" transform="matrix(1,0,0,1,1270,135) translate(38.96942074714659 97.57652604105802)"/><use xlink:href="#aF" transform="matrix(1,0,0,1,1270,135) translate(81.1542986249075 97.57652604105802)"/><path d="M595 376a6 6 0 0 1 6-6h440a6 6 0 0 1 6 6v28a6 6 0 0 1-6 6H601a6 6 0 0 1-6-6z" stroke="#000" stroke-width="2" fill="#fff"/><use xlink:href="#aG" transform="matrix(1,0,0,1,600,375) translate(122.45113340765512 17.409513192121885)"/><use xlink:href="#p" transform="matrix(1,0,0,1,600,375) translate(158.42289111854325 17.409513192121885)"/><use xlink:href="#q" transform="matrix(1,0,0,1,600,375) translate(195.0159791898922 17.409513192121885)"/><use xlink:href="#aH" transform="matrix(1,0,0,1,600,375) translate(201.55629877369006 17.409513192121885)"/><use xlink:href="#aI" transform="matrix(1,0,0,1,600,375) translate(283.2121887774061 17.409513192121885)"/><path d="M175 436a6 6 0 0 1 6-6h145a6 6 0 0 1 6 6v103a6 6 0 0 1-6 6H181a6 6 0 0 1-6-6z" stroke="#000" stroke-width="2" fill="#fff"/><g><use xlink:href="#aJ" transform="matrix(1,0,0,1,180,435) translate(2.6213223111669173 18.98310050750798)"/><use xlink:href="#aK" transform="matrix(1,0,0,1,180,435) translate(15.513071382479637 18.98310050750798)"/><use xlink:href="#aL" transform="matrix(1,0,0,1,180,435) translate(69.61544498508869 18.98310050750798)"/><use xlink:href="#aM" transform="matrix(1,0,0,1,180,435) translate(35.68865867908405 37.5472191701983)"/><use xlink:href="#aN" transform="matrix(1,0,0,1,180,435) translate(55.45600725509689 37.5472191701983)"/><use xlink:href="#aO" transform="matrix(1,0,0,1,180,435) translate(107.8394809815309 37.5472191701983)"/><use xlink:href="#aP" transform="matrix(1,0,0,1,180,435) translate(17.74764122150717 56.111337832888616)"/><use xlink:href="#aO" transform="matrix(1,0,0,1,180,435) translate(125.78049843910779 56.111337832888616)"/><use xlink:href="#aQ" transform="matrix(1,0,0,1,180,435) translate(28.404820453792357 74.67545649557894)"/><use xlink:href="#aO" transform="matrix(1,0,0,1,180,435) translate(115.12331920682259 74.67545649557894)"/><use xlink:href="#aR" transform="matrix(1,0,0,1,180,435) translate(37.85876977275502 93.23957515826926)"/></g><path d="M395 436a6 6 0 0 1 6-6h145a6 6 0 0 1 6 6v103a6 6 0 0 1-6 6H401a6 6 0 0 1-6-6z" stroke="#000" stroke-width="2" fill="#fff"/><g><use xlink:href="#aS" transform="matrix(1,0,0,1,399.99999999999994,435) translate(34.62615402594367 24.957286432160807)"/><use xlink:href="#aT" transform="matrix(1,0,0,1,399.99999999999994,435) translate(0.0719878462077722 45.68978614000234)"/><use xlink:href="#E" transform="matrix(1,0,0,1,399.99999999999994,435) translate(82.52206770285537 45.68978614000234)"/><use xlink:href="#aU" transform="matrix(1,0,0,1,399.99999999999994,435) translate(104.59834053990885 45.68978614000234)"/><use xlink:href="#aV" transform="matrix(1,0,0,1,399.99999999999994,435) translate(3.0474854894628156 66.42228584784388)"/><use xlink:href="#aW" transform="matrix(1,0,0,1,399.99999999999994,435) translate(50.07954501188111 66.42228584784388)"/><use xlink:href="#am" transform="matrix(1,0,0,1,399.99999999999994,435) translate(99.75115889525145 66.42228584784388)"/><use xlink:href="#L" transform="matrix(1,0,0,1,399.99999999999994,435) translate(135.16917922948073 66.42228584784388)"/><use xlink:href="#aX" transform="matrix(1,0,0,1,399.99999999999994,435) translate(5.3750925168478 87.15478555568542)"/><use xlink:href="#aY" transform="matrix(1,0,0,1,399.99999999999994,435) translate(63.82922363756769 87.15478555568542)"/><use xlink:href="#aZ" transform="matrix(1,0,0,1,399.99999999999994,435) translate(100.25507381870594 87.15478555568542)"/></g><path d="M615 436a6 6 0 0 1 6-6h145a6 6 0 0 1 6 6v103a6 6 0 0 1-6 6H621a6 6 0 0 1-6-6z" stroke="#000" stroke-width="2" fill="#fff"/><g><use xlink:href="#ba" transform="matrix(1,0,0,1,620,435) translate(17.349070936075726 24.957286432160807)"/><use xlink:href="#bb" transform="matrix(1,0,0,1,620,435) translate(92.16843909469831 24.957286432160807)"/><use xlink:href="#bc" transform="matrix(1,0,0,1,620,435) translate(3.4314206692376503 45.68978614000234)"/><use xlink:href="#ah" transform="matrix(1,0,0,1,620,435) translate(41.77694674925012 45.68978614000234)"/><use xlink:href="#bd" transform="matrix(1,0,0,1,620,435) translate(63.85321958630361 45.68978614000234)"/><use xlink:href="#be" transform="matrix(1,0,0,1,620,435) translate(103.15858361575319 45.68978614000234)"/><use xlink:href="#bf" transform="matrix(1,0,0,1,620,435) translate(139.58443379689146 45.68978614000234)"/><use xlink:href="#bg" transform="matrix(1,0,0,1,620,435) translate(1.5597366678353006 66.42228584784388)"/><use xlink:href="#bh" transform="matrix(1,0,0,1,620,435) translate(83.00198667757391 66.42228584784388)"/><use xlink:href="#bf" transform="matrix(1,0,0,1,620,435) translate(141.4561177982938 66.42228584784388)"/><use xlink:href="#bi" transform="matrix(1,0,0,1,620,435) translate(31.314713100385653 87.15478555568542)"/><use xlink:href="#bj" transform="matrix(1,0,0,1,620,435) translate(84.00981652448289 87.15478555568542)"/></g><path d="M835 436a6 6 0 0 1 6-6h145a6 6 0 0 1 6 6v103a6 6 0 0 1-6 6H841a6 6 0 0 1-6-6z" stroke="#000" stroke-width="2" fill="#fff"/><g><use xlink:href="#bk" transform="matrix(1,0,0,1,840,435) translate(20.94846324646488 14.646527209691872)"/><use xlink:href="#U" transform="matrix(1,0,0,1,840,435) translate(83.19395426746135 14.646527209691872)"/><use xlink:href="#bl" transform="matrix(1,0,0,1,840,435) translate(98.07144248373653 14.646527209691872)"/><use xlink:href="#bm" transform="matrix(1,0,0,1,840,435) translate(27.859296482412063 35.37902691753341)"/><use xlink:href="#aA" transform="matrix(1,0,0,1,840,435) translate(102.67866464103463 35.37902691753341)"/><use xlink:href="#bn" transform="matrix(1,0,0,1,840,435) translate(27.451365353901288 56.11152662537495)"/><use xlink:href="#bo" transform="matrix(1,0,0,1,840,435) translate(36.977757002064585 76.84402633321649)"/><use xlink:href="#af" transform="matrix(1,0,0,1,840,435) translate(97.44754781660241 76.84402633321649)"/><use xlink:href="#bp" transform="matrix(1,0,0,1,840,435) translate(35.10607300066223 97.57652604105802)"/></g><path d="M1055 436a6 6 0 0 1 6-6h145a6 6 0 0 1 6 6v103a6 6 0 0 1-6 6h-145a6 6 0 0 1-6-6z" stroke="#000" stroke-width="2" fill="#fff"/><g><use xlink:href="#bq" transform="matrix(1,0,0,1,1060,435) translate(35.37002843675743 14.646527209691872)"/><use xlink:href="#P" transform="matrix(1,0,0,1,1060,435) translate(102.36671730746758 14.646527209691872)"/><use xlink:href="#br" transform="matrix(1,0,0,1,1060,435) translate(36.04191500136341 35.37902691753341)"/><use xlink:href="#bs" transform="matrix(1,0,0,1,1060,435) translate(25.051770480308516 56.11152662537495)"/><use xlink:href="#R" transform="matrix(1,0,0,1,1060,435) translate(105.48619064313819 56.11152662537495)"/><use xlink:href="#bt" transform="matrix(1,0,0,1,1060,435) translate(3.3834287717658116 76.84402633321649)"/><use xlink:href="#bu" transform="matrix(1,0,0,1,1060,435) translate(66.6847415371431 76.84402633321649)"/><use xlink:href="#bv" transform="matrix(1,0,0,1,1060,435) translate(95.47988002025633 76.84402633321649)"/><use xlink:href="#bw" transform="matrix(1,0,0,1,1060,435) translate(37.02574889953644 97.57652604105802)"/><use xlink:href="#bx" transform="matrix(1,0,0,1,1060,435) translate(51.42331814109306 97.57652604105802)"/></g><path d="M1275 436a6 6 0 0 1 6-6h145a6 6 0 0 1 6 6v103a6 6 0 0 1-6 6h-145a6 6 0 0 1-6-6z" stroke="#000" stroke-width="2" fill="#fff"/><g><use xlink:href="#by" transform="matrix(1,0,0,1,1280,435) translate(8.470569903782481 24.957286432160807)"/><use xlink:href="#U" transform="matrix(1,0,0,1,1280,435) translate(78.3947645202758 24.957286432160807)"/><use xlink:href="#bz" transform="matrix(1,0,0,1,1280,435) translate(93.27225273655098 24.957286432160807)"/><use xlink:href="#bA" transform="matrix(1,0,0,1,1280,435) translate(36.04191500136341 45.68978614000234)"/><use xlink:href="#R" transform="matrix(1,0,0,1,1280,435) translate(94.4960461220833 45.68978614000234)"/><use xlink:href="#bB" transform="matrix(1,0,0,1,1280,435) translate(6.358926415020841 66.42228584784388)"/><use xlink:href="#bC" transform="matrix(1,0,0,1,1280,435) translate(98.35939386856766 66.42228584784388)"/><use xlink:href="#U" transform="matrix(1,0,0,1,1280,435) translate(0.7918663082856032 87.15478555568542)"/><use xlink:href="#ag" transform="matrix(1,0,0,1,1280,435) translate(15.669354524560779 87.15478555568542)"/><use xlink:href="#bD" transform="matrix(1,0,0,1,1280,435) translate(71.24397179696935 87.15478555568542)"/></g><path d="M595 671a6 6 0 0 1 6-6h440a6 6 0 0 1 6 6v28a6 6 0 0 1-6 6H601a6 6 0 0 1-6-6z" stroke="#000" stroke-width="2" fill="#fff"/><g><use xlink:href="#bE" transform="matrix(1,0,0,1,600,670) translate(2.1746562616127756 10.358231140839836)"/><use xlink:href="#p" transform="matrix(1,0,0,1,600,670) translate(38.146413972500916 10.358231140839836)"/><use xlink:href="#q" transform="matrix(1,0,0,1,600,670) translate(74.73950204384985 10.358231140839836)"/><use xlink:href="#bF" transform="matrix(1,0,0,1,600,670) translate(81.27982162764769 10.358231140839836)"/><use xlink:href="#bG" transform="matrix(1,0,0,1,600,670) translate(135.5317725752508 10.358231140839836)"/><use xlink:href="#bH" transform="matrix(1,0,0,1,600,670) translate(184.51876625789666 10.358231140839836)"/><use xlink:href="#bI" transform="matrix(1,0,0,1,600,670) translate(208.65254552211073 10.358231140839836)"/><use xlink:href="#bJ" transform="matrix(1,0,0,1,600,670) translate(218.4630248978075 10.358231140839836)"/><use xlink:href="#bK" transform="matrix(1,0,0,1,600,670) translate(271.34150873281305 10.358231140839836)"/><use xlink:href="#bL" transform="matrix(1,0,0,1,600,670) translate(339.2954292084727 10.358231140839836)"/><use xlink:href="#bM" transform="matrix(1,0,0,1,600,670) translate(362.18654775176515 10.358231140839836)"/><use xlink:href="#bN" transform="matrix(1,0,0,1,600,670) translate(190.06168710516533 24.485321441843176)"/><use xlink:href="#bO" transform="matrix(1,0,0,1,600,670) translate(210.92530657748046 24.485321441843176)"/></g><path d="M175 731a6 6 0 0 1 6-6h145a6 6 0 0 1 6 6v103a6 6 0 0 1-6 6H181a6 6 0 0 1-6-6z" stroke="#000" stroke-width="2" fill="#fff"/><g><use xlink:href="#Y" transform="matrix(1,0,0,1,180,730) translate(9.539894312771407 18.98310050750798)"/><use xlink:href="#bP" transform="matrix(1,0,0,1,180,730) translate(57.583145851863485 18.98310050750798)"/><use xlink:href="#bQ" transform="matrix(1,0,0,1,180,730) translate(76.4910444897888 18.98310050750798)"/><use xlink:href="#bR" transform="matrix(1,0,0,1,180,730) translate(43.01546940128011 37.5472191701983)"/><use xlink:href="#ab" transform="matrix(1,0,0,1,180,730) translate(89.33982106419715 37.5472191701983)"/><use xlink:href="#bS" transform="matrix(1,0,0,1,180,730) translate(26.084305620956073 56.111337832888616)"/><use xlink:href="#bT" transform="matrix(1,0,0,1,180,730) translate(112.71685938017755 56.111337832888616)"/><use xlink:href="#bU" transform="matrix(1,0,0,1,180,730) translate(43.89640558781981 74.67545649557894)"/><use xlink:href="#bV" transform="matrix(1,0,0,1,180,730) translate(4.576570920316006 93.23957515826926)"/><use xlink:href="#bW" transform="matrix(1,0,0,1,180,730) translate(98.17066917804637 93.23957515826926)"/><use xlink:href="#bX" transform="matrix(1,0,0,1,180,730) translate(111.49214321840284 93.23957515826926)"/></g><path d="M395 731a6 6 0 0 1 6-6h145a6 6 0 0 1 6 6v103a6 6 0 0 1-6 6H401a6 6 0 0 1-6-6z" stroke="#000" stroke-width="2" fill="#fff"/><g><use xlink:href="#bY" transform="matrix(1,0,0,1,399.99999999999994,730) translate(6.310934517548975 24.957286432160807)"/><use xlink:href="#bZ" transform="matrix(1,0,0,1,399.99999999999994,730) translate(20.708503759105596 24.957286432160807)"/><use xlink:href="#bA" transform="matrix(1,0,0,1,399.99999999999994,730) translate(65.77289548517783 24.957286432160807)"/><use xlink:href="#aA" transform="matrix(1,0,0,1,399.99999999999994,730) translate(124.22702660589772 24.957286432160807)"/><use xlink:href="#ca" transform="matrix(1,0,0,1,399.99999999999994,730) translate(3.9113396439562047 45.68978614000234)"/><use xlink:href="#cb" transform="matrix(1,0,0,1,399.99999999999994,730) translate(47.008063573682364 45.68978614000234)"/><use xlink:href="#cc" transform="matrix(1,0,0,1,399.99999999999994,730) translate(56.606443068053444 45.68978614000234)"/><use xlink:href="#cb" transform="matrix(1,0,0,1,399.99999999999994,730) translate(26.995442327918663 66.42228584784388)"/><use xlink:href="#cd" transform="matrix(1,0,0,1,399.99999999999994,730) translate(36.59382182228975 66.42228584784388)"/><use xlink:href="#bf" transform="matrix(1,0,0,1,399.99999999999994,730) translate(116.02041213821045 66.42228584784388)"/><use xlink:href="#ce" transform="matrix(1,0,0,1,399.99999999999994,730) translate(28.411203303338393 87.15478555568542)"/></g><path d="M615 731a6 6 0 0 1 6-6h145a6 6 0 0 1 6 6v103a6 6 0 0 1-6 6H621a6 6 0 0 1-6-6z" stroke="#000" stroke-width="2" fill="#fff"/><g><use xlink:href="#cf" transform="matrix(1,0,0,1,620,730) translate(3.9113396439562047 24.957286432160807)"/><use xlink:href="#cg" transform="matrix(1,0,0,1,620,730) translate(87.27326555256906 24.957286432160807)"/><use xlink:href="#ah" transform="matrix(1,0,0,1,620,730) translate(11.56604729071715 45.68978614000234)"/><use xlink:href="#ch" transform="matrix(1,0,0,1,620,730) translate(33.64232012777064 45.68978614000234)"/><use xlink:href="#ci" transform="matrix(1,0,0,1,620,730) translate(118.97191383272956 45.68978614000234)"/><use xlink:href="#cj" transform="matrix(1,0,0,1,620,730) translate(4.871177593393313 66.42228584784388)"/><use xlink:href="#ck" transform="matrix(1,0,0,1,620,730) translate(54.73475906665108 66.42228584784388)"/><use xlink:href="#ci" transform="matrix(1,0,0,1,620,730) translate(125.6667835300534 66.42228584784388)"/><use xlink:href="#cl" transform="matrix(1,0,0,1,620,730) translate(17.80499396205835 87.15478555568542)"/><use xlink:href="#cm" transform="matrix(1,0,0,1,620,730) translate(71.4599353355927 87.15478555568542)"/><use xlink:href="#cn" transform="matrix(1,0,0,1,620,730) translate(92.57637022320908 87.15478555568542)"/></g><path d="M835 731a6 6 0 0 1 6-6h145a6 6 0 0 1 6 6v103a6 6 0 0 1-6 6H841a6 6 0 0 1-6-6z" stroke="#000" stroke-width="2" fill="#fff"/><g><use xlink:href="#co" transform="matrix(1,0,0,1,840,730) translate(17.37306688481165 14.646527209691872)"/><use xlink:href="#ca" transform="matrix(1,0,0,1,840,730) translate(53.79891706594991 14.646527209691872)"/><use xlink:href="#cp" transform="matrix(1,0,0,1,840,730) translate(96.89564099567606 14.646527209691872)"/><use xlink:href="#cq" transform="matrix(1,0,0,1,840,730) translate(26.467531455728253 35.37902691753341)"/><use xlink:href="#aA" transform="matrix(1,0,0,1,840,730) translate(104.07042966771846 35.37902691753341)"/><use xlink:href="#cr" transform="matrix(1,0,0,1,840,730) translate(2.9515016945190964 56.11152662537495)"/><use xlink:href="#ak" transform="matrix(1,0,0,1,840,730) translate(63.37330061158505 56.11152662537495)"/><use xlink:href="#cs" transform="matrix(1,0,0,1,840,730) translate(83.48190565229247 56.11152662537495)"/><use xlink:href="#cb" transform="matrix(1,0,0,1,840,730) translate(10.654201238751895 76.84402633321649)"/><use xlink:href="#ct" transform="matrix(1,0,0,1,840,730) translate(20.252580733122976 76.84402633321649)"/><use xlink:href="#cu" transform="matrix(1,0,0,1,840,730) translate(53.77492111721398 97.57652604105802)"/></g><path d="M1055 731a6 6 0 0 1 6-6h145a6 6 0 0 1 6 6v103a6 6 0 0 1-6 6h-145a6 6 0 0 1-6-6z" stroke="#000" stroke-width="2" fill="#fff"/><g><use xlink:href="#cv" transform="matrix(1,0,0,1,1060,730.0000000000001) translate(15.154213683033449 29.952272034156756)"/><use xlink:href="#cw" transform="matrix(1,0,0,1,1060,730.0000000000001) translate(2.6300701433363853 57.00442207990241)"/><use xlink:href="#cx" transform="matrix(1,0,0,1,1060,730.0000000000001) translate(72.57741181254448 57.00442207990241)"/><use xlink:href="#cy" transform="matrix(1,0,0,1,1060,730.0000000000001) translate(101.38294195384772 57.00442207990241)"/><use xlink:href="#cz" transform="matrix(1,0,0,1,1060,730.0000000000001) translate(27.61573650503202 84.05657212564807)"/><use xlink:href="#cA" transform="matrix(1,0,0,1,1060,730.0000000000001) translate(57.673681000304974 84.05657212564807)"/></g><path d="M1275 731a6 6 0 0 1 6-6h145a6 6 0 0 1 6 6v103a6 6 0 0 1-6 6h-145a6 6 0 0 1-6-6z" stroke="#000" stroke-width="2" fill="#fff"/><g><use xlink:href="#cB" transform="matrix(1,0,0,1,1280,730) translate(5.399088465583733 14.646527209691872)"/><use xlink:href="#cC" transform="matrix(1,0,0,1,1280,730) translate(44.65646059756146 14.646527209691872)"/><use xlink:href="#cD" transform="matrix(1,0,0,1,1280,730) translate(54.25484009193254 14.646527209691872)"/><use xlink:href="#cE" transform="matrix(1,0,0,1,1280,730) translate(34.57816212847182 35.37902691753341)"/><use xlink:href="#aA" transform="matrix(1,0,0,1,1280,730) translate(95.95979899497488 35.37902691753341)"/><use xlink:href="#cF" transform="matrix(1,0,0,1,1280,730) translate(4.391258618674758 56.11152662537495)"/><use xlink:href="#cG" transform="matrix(1,0,0,1,1280,730) translate(90.72868217054264 56.11152662537495)"/><use xlink:href="#cH" transform="matrix(1,0,0,1,1280,730) translate(25.003778582836663 76.84402633321649)"/><use xlink:href="#cI" transform="matrix(1,0,0,1,1280,730) translate(49.91157337072962 76.84402633321649)"/><use xlink:href="#cJ" transform="matrix(1,0,0,1,1280,730) translate(34.14623505122512 97.57652604105802)"/></g><path d="M80 1006a6 6 0 0 1 6-6h268a6 6 0 0 1 6 6v18a6 6 0 0 1-6 6H86a6 6 0 0 1-6-6z" stroke="#000" stroke-width="2" fill="#22c55e"/><g><use xlink:href="#cK" transform="matrix(1,0,0,1,85,1005) translate(118.85268727373993 11.767335004177111)"/><use xlink:href="#cL" transform="matrix(1,0,0,1,85,1005) translate(146.29908103592317 11.767335004177111)"/></g><path d="M360 1046a6 6 0 0 1 6-6h478a6 6 0 0 1 6 6v18a6 6 0 0 1-6 6H366a6 6 0 0 1-6-6z" stroke="#000" stroke-width="2" fill="#3b82f6"/><g><use xlink:href="#cM" transform="matrix(1,0,0,1,365,1045) translate(223.98217766638822 11.767335004177111)"/><use xlink:href="#cN" transform="matrix(1,0,0,1,365,1045) translate(251.42857142857147 11.767335004177111)"/></g><path d="M850 1086a6 6 0 0 1 6-6h408a6 6 0 0 1 6 6v18a6 6 0 0 1-6 6H856a6 6 0 0 1-6-6z" stroke="#000" stroke-width="2" fill="#eab308"/><g><use xlink:href="#cK" transform="matrix(1,0,0,1,855,1085) translate(188.93901420217213 11.767335004177111)"/><use xlink:href="#cO" transform="matrix(1,0,0,1,855,1085) translate(216.38540796435538 11.767335004177111)"/></g><path d="M1344.26 247l.74 58-1090 5-.85 100.5" stroke="#000" stroke-width="2" fill="none"/><path d="M1345.23 247l-1.94.04-.03-1.04h1.95z" stroke="#000" stroke-width=".05"/><path d="M254.02 425.76l-4.5-14.3 9.26.08z" stroke="#000" stroke-width="2"/><g><use xlink:href="#a" transform="matrix(1,0,0,1,638.227820725549,281.8539018356659) translate(0 14.4)"/><use xlink:href="#b" transform="matrix(1,0,0,1,638.227820725549,281.8539018356659) translate(56 14.4)"/><use xlink:href="#cP" transform="matrix(1,0,0,1,638.227820725549,281.8539018356659) translate(71 14.4)"/><use xlink:href="#cQ" transform="matrix(1,0,0,1,638.227820725549,281.8539018356659) translate(114.95 14.4)"/><use xlink:href="#cR" transform="matrix(1,0,0,1,638.227820725549,281.8539018356659) translate(130.45 14.4)"/><use xlink:href="#cS" transform="matrix(1,0,0,1,638.227820725549,281.8539018356659) translate(204.35 14.4)"/><use xlink:href="#cT" transform="matrix(1,0,0,1,638.227820725549,281.8539018356659) translate(268.3 14.4)"/></g><path d="M1354.17 547l.83 73-1100-5-.8 90.5" stroke="#000" stroke-width="2" fill="none"/><path d="M1355.15 547l-1.95.04V546h1.94z" stroke="#000" stroke-width=".05"/><path d="M254.05 720.76l-4.5-14.3 9.27.08z" stroke="#000" stroke-width="2"/><g><use xlink:href="#a" transform="matrix(1,0,0,1,627.9047339336578,591.8961542405823) translate(0 14.4)"/><use xlink:href="#g" transform="matrix(1,0,0,1,627.9047339336578,591.8961542405823) translate(56 14.4)"/><use xlink:href="#cU" transform="matrix(1,0,0,1,627.9047339336578,591.8961542405823) translate(71 14.4)"/><use xlink:href="#cV" transform="matrix(1,0,0,1,627.9047339336578,591.8961542405823) translate(157.9 14.4)"/><use xlink:href="#cW" transform="matrix(1,0,0,1,627.9047339336578,591.8961542405823) translate(210.85000000000002 14.4)"/><use xlink:href="#cX" transform="matrix(1,0,0,1,627.9047339336578,591.8961542405823) translate(281.70000000000005 14.4)"/><use xlink:href="#cY" transform="matrix(1,0,0,1,627.9047339336578,591.8961542405823) translate(307.65000000000003 14.4)"/></g><path d="M334 187.5h39.5" stroke="#000" stroke-width="2" fill="none"/><path d="M334.03 188.47H333v-1.94h1.03z" stroke="#000" stroke-width=".05"/><path d="M388.76 187.5l-14.26 4.63v-9.26z" stroke="#000" stroke-width="2"/><path d="M552 187.5h39.5" stroke="#000" stroke-width="2" fill="none"/><path d="M552.03 188.47H551v-1.94h1.03z" stroke="#000" stroke-width=".05"/><path d="M606.76 187.5l-14.26 4.63v-9.26z" stroke="#000" stroke-width="2"/><path d="M770 187.5h39.5" stroke="#000" stroke-width="2" fill="none"/><path d="M770.03 188.47H769v-1.94h1.03z" stroke="#000" stroke-width=".05"/><path d="M824.76 187.5l-14.26 4.63v-9.26z" stroke="#000" stroke-width="2"/><path d="M988 187.5h39.5" stroke="#000" stroke-width="2" fill="none"/><path d="M988.03 188.47H987v-1.94h1.03z" stroke="#000" stroke-width=".05"/><path d="M1042.76 187.5l-14.26 4.63v-9.26z" stroke="#000" stroke-width="2"/><path d="M1206 187.5h39.5" stroke="#000" stroke-width="2" fill="none"/><path d="M1206.03 188.47H1205v-1.94h1.03z" stroke="#000" stroke-width=".05"/><path d="M1260.76 187.5l-14.26 4.63v-9.26z" stroke="#000" stroke-width="2"/><path d="M334 487.5h41.5" stroke="#000" stroke-width="2" fill="none"/><path d="M334.03 488.48H333v-1.96h1.03z" stroke="#000" stroke-width=".05"/><path d="M390.76 487.5l-14.26 4.63v-9.26z" stroke="#000" stroke-width="2"/><path d="M554 487.5h41.5" stroke="#000" stroke-width="2" fill="none"/><path d="M554.03 488.48H553v-1.96h1.03z" stroke="#000" stroke-width=".05"/><path d="M610.76 487.5l-14.26 4.63v-9.26z" stroke="#000" stroke-width="2"/><path d="M774 487.5h41.5" stroke="#000" stroke-width="2" fill="none"/><path d="M774.03 488.48H773v-1.96h1.03z" stroke="#000" stroke-width=".05"/><path d="M830.76 487.5l-14.26 4.63v-9.26z" stroke="#000" stroke-width="2"/><path d="M994 487.5h41.5" stroke="#000" stroke-width="2" fill="none"/><path d="M994.03 488.48H993v-1.96h1.03z" stroke="#000" stroke-width=".05"/><path d="M1050.76 487.5l-14.26 4.63v-9.26z" stroke="#000" stroke-width="2"/><path d="M1214 487.5h41.5" stroke="#000" stroke-width="2" fill="none"/><path d="M1214.03 488.48H1213v-1.96h1.03z" stroke="#000" stroke-width=".05"/><path d="M1270.76 487.5l-14.26 4.63v-9.26z" stroke="#000" stroke-width="2"/><path d="M334 782.5h41.5" stroke="#000" stroke-width="2" fill="none"/><path d="M334.03 783.48H333v-1.96h1.03z" stroke="#000" stroke-width=".05"/><path d="M390.76 782.5l-14.26 4.63v-9.26z" stroke="#000" stroke-width="2"/><path d="M554 782.5h41.5" stroke="#000" stroke-width="2" fill="none"/><path d="M554.03 783.48H553v-1.96h1.03z" stroke="#000" stroke-width=".05"/><path d="M610.76 782.5l-14.26 4.63v-9.26z" stroke="#000" stroke-width="2"/><path d="M774 782.5h41.5" stroke="#000" stroke-width="2" fill="none"/><path d="M774.03 783.48H773v-1.96h1.03z" stroke="#000" stroke-width=".05"/><path d="M830.76 782.5l-14.26 4.63v-9.26z" stroke="#000" stroke-width="2"/><path d="M994 782.5h41.5" stroke="#000" stroke-width="2" fill="none"/><path d="M994.03 783.48H993v-1.96h1.03z" stroke="#000" stroke-width=".05"/><path d="M1050.76 782.5l-14.26 4.63v-9.26z" stroke="#000" stroke-width="2"/><path d="M1214 782.5h41.5" stroke="#000" stroke-width="2" fill="none"/><path d="M1214.03 783.48H1213v-1.96h1.03z" stroke="#000" stroke-width=".05"/><path d="M1270.76 782.5l-14.26 4.63v-9.26z" stroke="#000" stroke-width="2"/><defs><path d="M30-248c87 1 191-15 191 75 0 78-77 80-158 76V0H30v-248zm33 125c57 0 124 11 124-50 0-59-68-47-124-48v98" id="cZ"/><path d="M106-169C34-169 62-67 57 0H25v-261h32l-1 103c12-21 28-36 61-36 89 0 53 116 60 194h-32v-121c2-32-8-49-39-48" id="da"/><path d="M141-36C126-15 110 5 73 4 37 3 15-17 15-53c-1-64 63-63 125-63 3-35-9-54-41-54-24 1-41 7-42 31l-33-3c5-37 33-52 76-52 45 0 72 20 72 64v82c-1 20 7 32 28 27v20c-31 9-61-2-59-35zM48-53c0 20 12 33 32 33 41-3 63-29 60-74-43 2-92-5-92 41" id="db"/><path d="M135-143c-3-34-86-38-87 0 15 53 115 12 119 90S17 21 10-45l28-5c4 36 97 45 98 0-10-56-113-15-118-90-4-57 82-63 122-42 12 7 21 19 24 35" id="dc"/><path d="M100-194c63 0 86 42 84 106H49c0 40 14 67 53 68 26 1 43-12 49-29l28 8c-11 28-37 45-77 45C44 4 14-33 15-96c1-61 26-98 85-98zm52 81c6-60-76-77-97-28-3 7-6 17-6 28h103" id="dd"/></defs></g></svg>